<svg xmlns="http://www.w3.org/2000/svg" xml:lang="en" height="56.2pt" width="87.32200000000002pt" viewBox="-82.08200000000001 -19.189999999999998 87.32200000000002 56.2" style="background-color:white;"><path d="M -27.540000000000003,28.349999999999998 L -26.502062436312453,28.31671536255545 L -25.468389980711006,28.216998223936585 L -24.44323021503777,28.051258343255256 L -23.43079574066598,27.820176781232277 L -22.435246868017344,27.52470310157283 L -21.46067452095414,27.166051469005552 L -20.51108342629556,26.745695660019187 L -19.59037565753621,26.265363006798907 L -18.70233460038911,25.72702729924782 L -17.85060940604231,25.1329006742609 L -17.038699996013825,24.485424525579976 L -16.26994268022353,23.787259471583187 L -15.547496447379892,23.041274422233332 L -14.874329984017924,22.25053479011148 L -14.25320947552931,21.418289893979146 L -13.686687239313398,20.547959606630506 L -13.177091236757398,19.64312030190153 L -12.726515507143835,18.707490158582782 L -12.336811562793878,17.744913881625187 L -12.009580780806093,16.759346903422728 L -11.746167822654462,15.754839130092291 L -11.547655108685907,14.735518299540743 L -11.41485837022299,13.705573019704445 L -11.348323297548863,12.669235556660814 L -11.348323297548863,11.630764443339189 L -11.41485837022299,10.594426980295557 L -11.547655108685907,9.56448170045926 L -11.746167822654462,8.545160869907708 L -12.009580780806093,7.540653096577275 L -12.336811562793878,6.555086118374818 L -12.726515507143835,5.592509841417222 L -13.177091236757398,4.656879698098471 L -13.686687239313398,3.752040393369494 L -14.25320947552931,2.8817101060208548 L -14.874329984017924,2.0494652098885173 L -15.547496447379892,1.2587255777666717 L -16.269942680223522,0.5127405284168146 L -17.038699996013825,-0.18542452557997405 L -17.850609406042295,-0.8329006742608971 L -18.70233460038911,-1.4270272992478141 L -19.59037565753621,-1.9653630067989047 L -20.51108342629556,-2.44569566001919 L -21.46067452095414,-2.8660514690055505 L -22.435246868017344,-3.224703101572832 L -23.43079574066598,-3.520176781232275 L -24.44323021503777,-3.751258343255258 L -25.468389980710995,-3.9169982239365857 L -26.502062436312446,-4.016715362555448 L -27.540000000000003,-4.05 L -27.540000000000003,-4.05 L -48.599999999999994,-4.05 L -48.599999999999994,12.149999999999999 L -48.599999999999994,28.349999999999998 L -27.540000000000003,28.349999999999998" style="stroke:black;fill:none;stroke-width:2.0;stroke-linecap:round;stroke-linejoin:round;" /><path d="M -59.94,20.25 L -48.599999999999994,20.25" style="stroke:black;fill:none;stroke-width:2.0;stroke-linecap:round;stroke-linejoin:round;" /><path d="M -59.94,4.05 L -48.599999999999994,4.05" style="stroke:black;fill:none;stroke-width:2.0;stroke-linecap:round;stroke-linejoin:round;" /><path d="M -11.340000000000002,12.149999999999999 L 0.0,12.149999999999999" style="stroke:black;fill:none;stroke-width:2.0;stroke-linecap:round;stroke-linejoin:round;" /><text x="-63.18" y="-3.6500000000000004" fill="black" font-size="14.0" font-family="sans" text-anchor="end" transform="rotate(0 -63.18 1.95)"><tspan x="-63.18" dy="11.200000000000001">a</tspan></text><text x="-63.18" y="12.550000000000002" fill="black" font-size="14.0" font-family="sans" text-anchor="end" transform="rotate(0 -63.18 18.150000000000002)"><tspan x="-63.18" dy="11.200000000000001">b</tspan></text></svg>